<svg id="Ebene_1" data-name="Ebene 1" xmlns="http://www.w3.org/2000/svg" viewBox="0 0 329.07 202.68"><defs><style>.cls-1{fill:#004f9f;}.cls-2{fill:#e30613;}.cls-3{fill:#52ae32;}</style></defs><title>Logo_irt_vers</title><polygon class="cls-1" points="0 0 43.95 0 43.95 202.68 0 202.68 0 0 0 0"/><polygon class="cls-2" points="66 0 112.69 0 112.69 202.68 66 202.68 66 0 66 0"/><polygon class="cls-1" points="121.21 109.32 217 202.68 121.21 202.68 121.21 109.32 121.21 109.32"/><path class="cls-3" d="M346.54,256.57v98.35l30.79,29.15s50.35-8.86,55-46.06-10.11-51.18-20.11-60.36-30.6-20.94-65.69-21.09Z" transform="translate(-225.33 -256.57)"/><polygon class="cls-1" points="213.8 0 213.8 48.13 245.36 48.13 245.36 202.68 294.46 202.68 294.46 48.13 329.07 48.13 329.07 0 213.8 0 213.8 0"/></svg>